<?xml version="1.0" encoding="UTF-8"?>
<svg width="443px" height="536px" viewBox="0 0 443 536" version="1.1" xmlns="http://www.w3.org/2000/svg" xmlns:xlink="http://www.w3.org/1999/xlink">
    <!-- Generator: Sketch 41.2 (35397) - http://www.bohemiancoding.com/sketch -->
    <title>fy 2</title>
    <desc>Created with Sketch.</desc>
    <defs></defs>
    <g id="Page-1" stroke="none" stroke-width="1" fill="none" fill-rule="evenodd">
        <path d="M244.125,379.640625 C252.357412,379.640625 274.381277,343.88608 279.921875,282.757812 C280.898767,271.979963 286.070951,255.763605 286.351563,240.25 C286.431604,235.824901 278.434579,232.224307 278.4375,227.570312 C278.440421,222.916318 278,59.9471413 278,50 C278,28.4608948 261.434536,11 241,11 C220.565464,11 204,28.4608948 204,50 C204,61.9602557 200.577847,183.724694 209.476562,270.585938 C218.375278,357.447181 235.037374,379.640625 244.125,379.640625 Z" id="Oval" fill="#FFFFFF"></path>
        <path d="M134.664063,193.171875 C134.664063,193.171875 160.023533,183.08441 168.648438,184.796875 C177.273342,186.50934 285.40625,223.101563 285.40625,223.101563 L312.265625,200.1875 C312.265625,200.1875 336.159554,208.088805 350.234375,212.359375 C356.075885,214.131801 352.328083,239.024558 366.171875,243.09375 C372.645864,244.99669 375.667871,228.209896 387.53125,225.640625 C399.394629,223.071354 423.085937,233.8125 423.085937,233.8125 L433.679687,372.96875 L412,452 C412,452 327.648437,528.71875 261.898438,526.414062 C196.148438,524.109375 147,452 147,452 L134.664063,193.171875 Z" id="Rectangle" fill="#FFFFFF"></path>
        <path d="M14,212 C14,212 31.8834082,198.034082 44.7578125,200.625 C57.6322168,203.215918 90.515625,227.398438 90.515625,227.398438 C90.515625,227.398438 165.702212,283.049049 173.953125,319.023438 C182.204038,354.997826 151.632813,458.921875 151.632813,458.921875 L14,268 L14,212 Z" id="Rectangle-2" fill="#FFFFFF"></path>
        <g id="fy" fill="#524E4E">
            <path d="M395.017,210.375 C383.542,210.375 372.066,214.2 362.503,221.85 C354.855,204.638 337.642,191.25 318.517,191.25 C307.042,191.25 297.48,195.075 289.829,200.812 L289.829,47.812 C289.829,21.038 268.792,0 242.017,0 C215.241,0 194.204,21.038 194.204,47.812 L194.204,181.687 C186.554,175.95 176.992,172.125 165.516,172.125 C138.741,172.125 117.704,193.163 117.704,219.937 L117.704,237.149 C79.454,202.724 37.379,175.949 10.604,202.724 C-27.646,240.974 52.679,315.561 113.879,428.399 C157.867,506.811 219.067,535.499 280.267,535.499 C370.154,535.499 442.829,462.824 442.829,372.937 L442.829,258.187 C442.829,231.413 421.792,210.375 395.017,210.375 Z M423.704,372.938 C423.704,451.35 358.679,516.376 280.266,516.376 C207.591,516.376 165.516,476.214 131.091,420.751 C56.503,294.526 2.953,237.151 23.991,216.113 C45.029,195.076 96.666,240.976 136.828,283.051 L136.828,219.939 C136.828,204.639 150.216,191.251 165.516,191.251 C180.816,191.251 194.204,204.639 194.204,219.939 L194.204,267.751 L213.329,267.751 L213.329,47.812 C213.329,32.512 226.716,19.124 242.017,19.124 C257.316,19.124 270.705,32.512 270.705,47.812 L270.705,248.624 L289.83,248.624 L289.83,239.062 C289.83,223.762 303.217,210.374 318.518,210.374 C333.817,210.374 347.206,223.762 347.206,239.062 L347.206,267.75 L366.331,267.75 L366.331,258.188 C366.331,242.888 379.718,229.5 395.019,229.5 C410.318,229.5 423.707,242.888 423.707,258.188 L423.707,300.263 L423.704,372.938 Z" id="Shape"></path>
        </g>
    </g>
</svg>